<svg width="311" height="176" viewBox="0 0 311 176" fill="none" xmlns="http://www.w3.org/2000/svg">
<g clip-path="url(#clip0)">
<path d="M281.619 26.1143C281.571 31.5484 281.175 36.9737 280.432 42.3566C280.406 42.5456 280.378 42.7346 280.352 42.9237L229.661 42.6393C229.512 42.4516 229.366 42.2616 229.224 42.0693C228.751 41.433 228.307 40.7787 227.9 40.1017C225.943 36.8405 225.047 33.0223 225.945 30.3879L225.961 30.347C226.155 29.7701 226.46 29.2374 226.859 28.7793C228.907 26.4659 233.046 26.8516 236.802 28.7188C233.433 25.0167 230.75 20.3451 230.546 16.1751C230.346 12.1078 232.465 9.20222 234.763 6.73298C234.838 6.65136 234.913 6.572 234.989 6.49265C235.025 6.45183 235.064 6.41329 235.101 6.37247C236.893 4.49073 238.983 2.63574 242.008 2.86013C245.326 3.10667 249.005 5.8966 251.584 9.14763C254.163 12.3964 255.877 16.087 257.614 19.6889C259.354 23.2885 261.236 26.9801 264.027 30.0568C260.246 25.256 257.198 19.7937 256.072 14.4812C254.946 9.16876 255.937 4.06648 259.306 1.56452C260.329 0.828359 261.513 0.348873 262.758 0.16618C262.904 0.141927 263.051 0.122236 263.201 0.104842C266.321 -0.251453 270.045 0.831567 273.213 3.42035C276.703 6.27079 279.122 10.4964 280.326 14.5079C281.53 18.5193 281.658 22.3811 281.619 26.1143Z" fill="#F2F2F2"/>
<path d="M248.454 42.7448L247.485 42.7393C247.177 42.5462 246.868 42.3553 246.557 42.1666C246.365 42.0447 246.171 41.9274 245.976 41.8078C242.761 39.8364 239.525 37.9455 236.27 36.1349C233.018 34.3229 229.749 32.5944 226.464 30.9493C226.377 30.9113 226.306 30.8438 226.263 30.7586C226.22 30.6734 226.209 30.5759 226.23 30.483C226.234 30.4709 226.239 30.4593 226.246 30.4489C226.292 30.3626 226.395 30.3267 226.544 30.4004C226.947 30.6033 227.352 30.8061 227.755 31.0135C231.049 32.6867 234.329 34.4435 237.595 36.2837C240.859 38.1231 244.104 40.0438 247.33 42.0456C247.398 42.087 247.466 42.1307 247.534 42.1721C247.841 42.363 248.147 42.5539 248.454 42.7448Z" fill="white"/>
<path d="M260.952 42.8148L260.353 42.8115C260.217 42.6215 260.085 42.4316 259.949 42.2417C256.773 37.7702 253.598 33.2987 250.423 28.8272C245.224 21.5066 240.026 14.1861 234.83 6.86556C234.799 6.82616 234.776 6.78113 234.762 6.73298C234.718 6.57089 234.837 6.47583 234.989 6.49264C235.053 6.50183 235.114 6.52463 235.169 6.55952C235.223 6.59442 235.27 6.6406 235.305 6.69499C238.22 10.8004 241.134 14.9042 244.048 19.0065C249.22 26.2904 254.391 33.5736 259.562 40.856C259.891 41.3182 260.22 41.7828 260.549 42.245C260.684 42.435 260.819 42.6249 260.952 42.8148Z" fill="white"/>
<path d="M274.306 39.3203C274.275 40.3344 274.208 41.3323 274.121 42.3211C274.104 42.5101 274.087 42.6992 274.07 42.8883L273.441 42.8848C273.46 42.6957 273.48 42.5066 273.497 42.3175C273.629 40.8892 273.724 39.4446 273.737 37.9609C273.753 33.8473 273.354 29.7426 272.545 25.71C271.685 21.368 270.449 17.1093 268.854 12.9824C267.178 8.62971 265.159 4.41872 262.814 0.389741C262.77 0.324076 262.75 0.244865 262.759 0.166073C262.785 -0.0138519 263.023 -0.0672062 263.202 0.104729C263.237 0.138463 263.267 0.176995 263.292 0.219196C263.582 0.719982 263.867 1.22227 264.146 1.72604C266.404 5.77739 268.337 10.003 269.927 14.3628C271.44 18.5033 272.592 22.7684 273.368 27.1096C274.095 31.137 274.409 35.2286 274.306 39.3203Z" fill="white"/>
<path d="M83.7108 77.6116C83.6633 83.0457 83.2668 88.471 82.5238 93.8539C82.4978 94.0429 82.4695 94.2319 82.4434 94.421L31.753 94.1366C31.6041 93.9489 31.4576 93.7589 31.3157 93.5666C30.8425 92.9303 30.3989 92.276 29.9917 91.599C28.0346 88.3378 27.1387 84.5196 28.0365 81.8852L28.0526 81.8443C28.2464 81.2674 28.5518 80.7347 28.9513 80.2766C30.9984 77.9633 35.1374 78.3489 38.8934 80.2162C35.5245 76.514 32.8419 71.8424 32.6381 67.6724C32.4382 63.6051 34.5567 60.6995 36.8544 58.2303C36.9298 58.1487 37.0052 58.0693 37.0806 57.99C37.1171 57.9491 37.1559 57.9106 37.1924 57.8698C38.9851 55.988 41.0751 54.1331 44.1002 54.3574C47.418 54.604 51.0964 57.3939 53.6756 60.645C56.2548 63.8937 57.9687 67.5843 59.7059 71.1862C61.4454 74.7858 63.3274 78.4774 66.1187 81.5541C62.338 76.7533 59.2898 71.291 58.1638 65.9785C57.0378 60.6661 58.0288 55.5638 61.3982 53.0618C62.4212 52.3257 63.6048 51.8462 64.8502 51.6635C64.9956 51.6392 65.1432 51.6196 65.2932 51.6022C68.4123 51.2459 72.1365 52.3289 75.3051 54.9177C78.7946 57.7681 81.2139 61.9938 82.4177 66.0052C83.6213 70.0166 83.7496 73.8784 83.7108 77.6116Z" fill="#F2F2F2"/>
<path d="M50.5462 94.2419L49.5769 94.2364C49.2692 94.0432 48.9599 93.8523 48.6493 93.6637C48.4569 93.5418 48.2624 93.4245 48.0677 93.3049C44.8525 91.3335 41.6173 89.4425 38.3619 87.632C35.1095 85.82 31.8407 84.0914 28.5556 82.4464C28.4685 82.4083 28.3975 82.3408 28.3548 82.2556C28.3122 82.1705 28.3006 82.073 28.3221 81.9801C28.3256 81.9679 28.3311 81.9564 28.3382 81.946C28.384 81.8596 28.4865 81.8237 28.6359 81.8975C29.0389 82.1004 29.4441 82.3032 29.8471 82.5106C33.1411 84.1838 36.4211 85.9405 39.6869 87.7808C42.9505 89.6202 46.1955 91.5408 49.4218 93.5427C49.4897 93.5841 49.5576 93.6278 49.6254 93.6692C49.9331 93.8601 50.2386 94.051 50.5462 94.2419Z" fill="white"/>
<path d="M63.0438 94.3119L62.4444 94.3086C62.3092 94.1186 62.1763 93.9287 62.0412 93.7388C58.865 89.2672 55.6894 84.7957 52.5146 80.3242C47.3154 73.0037 42.1177 65.6831 36.9216 58.3626C36.8908 58.3232 36.8679 58.2782 36.8542 58.23C36.8097 58.068 36.9283 57.9729 37.0803 57.9897C37.1444 57.9989 37.2058 58.0217 37.2604 58.0566C37.315 58.0915 37.3616 58.1377 37.397 58.1921C40.312 62.2974 43.2262 66.4013 46.1397 70.5036C51.3118 77.7875 56.4832 85.0707 61.6539 92.353C61.9828 92.8153 62.3116 93.2798 62.6405 93.7421C62.7757 93.9321 62.9109 94.122 63.0438 94.3119Z" fill="white"/>
<path d="M76.3969 90.8176C76.3663 91.8317 76.2995 92.8297 76.2122 93.8184C76.1952 94.0074 76.1783 94.1965 76.1613 94.3856L75.5325 94.3821C75.5517 94.193 75.5709 94.0039 75.5878 93.8148C75.7207 92.3865 75.815 90.942 75.8278 89.4582C75.8445 85.3446 75.4452 81.2399 74.636 77.2073C73.7758 72.8653 72.5408 68.6066 70.9448 64.4797C69.2698 60.127 67.2502 55.916 64.9055 51.8871C64.8614 51.8214 64.8417 51.7422 64.85 51.6634C64.876 51.4835 65.1146 51.4301 65.293 51.602C65.3282 51.6358 65.3586 51.6743 65.3832 51.7165C65.6733 52.2173 65.9581 52.7196 66.2376 53.2233C68.4958 57.2747 70.4287 61.5003 72.0179 65.8601C73.5316 70.0006 74.683 74.2657 75.4591 78.6069C76.186 82.6343 76.5003 86.7259 76.3969 90.8176Z" fill="white"/>
<path d="M108.789 116.114C108.308 116.114 107.835 115.985 107.421 115.739C107.006 115.493 106.665 115.14 106.434 114.716L103.72 109.741C103.38 109.115 103.301 108.379 103.5 107.695C103.699 107.01 104.161 106.433 104.784 106.089L146.087 83.3836C146.71 83.0417 147.443 82.962 148.125 83.1621C148.807 83.3622 149.382 83.8257 149.724 84.4509L152.437 89.4261C152.778 90.052 152.857 90.788 152.658 91.4726C152.459 92.1571 151.997 92.7343 151.374 93.0776L110.071 115.784C109.678 116 109.237 116.114 108.789 116.114Z" fill="#217FED"/>
<path d="M166.259 89.8074C165.981 89.8071 165.704 89.7635 165.439 89.6779C165.103 89.5715 164.792 89.3992 164.523 89.1712C164.254 88.9431 164.033 88.6638 163.872 88.3494L161.283 83.308C160.958 82.6737 160.897 81.9359 161.114 81.2566C161.33 80.5772 161.806 80.0117 162.437 79.6843L204.291 58.0202C204.923 57.6941 205.658 57.6329 206.335 57.85C207.012 58.0672 207.575 58.545 207.901 59.1786L210.49 64.22C210.815 64.8543 210.876 65.592 210.66 66.2714C210.443 66.9508 209.967 67.5162 209.336 67.8437L167.482 89.5077C167.104 89.7043 166.685 89.8071 166.259 89.8074Z" fill="#217FED"/>
<path d="M165.505 91.0271C165.007 91.027 164.518 90.8881 164.095 90.6257C163.671 90.3634 163.328 89.988 163.104 89.5414L160.569 84.4723C160.283 83.9006 160.209 83.2451 160.362 82.6237C160.379 82.5552 160.398 82.4866 160.421 82.4184C160.472 82.2636 160.527 82.0221 160.592 81.7425C160.797 80.8508 161.053 79.7411 161.574 79.4785L179.965 68.2876C180.279 68.1266 180.623 68.0297 180.975 68.0024C181.327 67.9751 181.681 68.0179 182.016 68.1285C182.352 68.2391 182.662 68.4152 182.93 68.6468C183.197 68.8783 183.417 69.1606 183.575 69.4775L188.214 79.0771C188.531 79.7148 188.584 80.4528 188.36 81.1293C188.136 81.8058 187.654 82.3656 187.02 82.686L166.686 90.7458C166.319 90.9309 165.915 91.0272 165.505 91.0271Z" fill="#2F2E41"/>
<path d="M157.105 65.3786C168.42 65.3786 177.592 56.17 177.592 44.8107C177.592 33.4514 168.42 24.2429 157.105 24.2429C145.79 24.2429 136.618 33.4514 136.618 44.8107C136.618 56.17 145.79 65.3786 157.105 65.3786Z" fill="#217FED"/>
<path d="M153.877 175.416H148.227C147.517 175.415 146.835 175.132 146.333 174.627C145.831 174.123 145.548 173.439 145.547 172.726V125.451C145.548 124.738 145.831 124.054 146.333 123.55C146.835 123.045 147.517 122.762 148.227 122.761H153.877C154.587 122.762 155.268 123.045 155.771 123.55C156.273 124.054 156.556 124.738 156.556 125.451V172.726C156.556 173.439 156.273 174.123 155.771 174.627C155.268 175.132 154.587 175.415 153.877 175.416Z" fill="#217FED"/>
<path d="M178.22 153.824C177.794 153.825 177.373 153.723 176.993 153.528C176.613 153.332 176.285 153.048 176.037 152.7L148.648 114.244C148.236 113.663 148.069 112.942 148.186 112.238C148.302 111.535 148.692 110.906 149.269 110.491L153.865 107.192C154.444 106.777 155.162 106.61 155.863 106.727C156.564 106.844 157.19 107.235 157.604 107.815L184.993 146.271C185.405 146.852 185.571 147.573 185.455 148.277C185.338 148.98 184.949 149.609 184.371 150.024L179.775 153.323C179.322 153.65 178.778 153.825 178.22 153.824Z" fill="#217FED"/>
<path d="M170.955 175.471C170.391 175.461 169.838 175.322 169.336 175.064L164.278 172.536C162.956 171.875 162.227 170.637 162.654 169.776L175.689 143.49C176.116 142.629 177.539 142.467 178.862 143.128L183.92 145.656C184.509 145.937 185.011 146.374 185.37 146.921C185.526 147.134 185.624 147.383 185.654 147.645C185.685 147.907 185.647 148.173 185.545 148.416L172.509 174.702C172.259 175.206 171.668 175.471 170.955 175.471Z" fill="#217FED"/>
<path d="M138.052 102.111C137.543 102.11 137.046 101.964 136.617 101.69C136.188 101.417 135.845 101.027 135.628 100.566L130.974 90.9789C130.824 90.6593 130.738 90.313 130.721 89.9599C130.704 89.6068 130.757 89.2538 130.876 88.9212C130.995 88.5885 131.178 88.2827 131.415 88.0212C131.652 87.7596 131.938 87.5476 132.256 87.3971L152.409 79.7751C152.923 79.5311 153.95 80.0153 154.775 80.4035C155.034 80.5255 155.258 80.6308 155.411 80.6859C155.478 80.7102 155.544 80.7372 155.608 80.7663C156.189 81.0297 156.657 81.4927 156.928 82.0719L159.334 87.2038C159.636 87.8495 159.67 88.589 159.43 89.2601C159.189 89.9312 158.693 90.4791 158.051 90.7836L139.208 101.847C138.847 102.019 138.452 102.11 138.052 102.111Z" fill="#2F2E41"/>
<path d="M154.378 52.4341L154.356 51.6655C155.781 51.6257 157.036 51.536 157.98 50.8439C158.247 50.6366 158.467 50.3738 158.625 50.0735C158.782 49.7732 158.873 49.4424 158.892 49.1037C158.908 48.8967 158.877 48.6886 158.8 48.4957C158.724 48.3028 158.604 48.1302 158.45 47.9913C157.824 47.4602 156.816 47.6321 156.081 47.9703L155.448 48.2619L156.663 39.3496L157.421 39.4539L156.388 47.035C157.386 46.7404 158.311 46.8673 158.944 47.4043C159.188 47.6175 159.378 47.8842 159.502 48.1837C159.626 48.4832 159.678 48.8073 159.657 49.1307C159.634 49.5859 159.513 50.0306 159.301 50.4338C159.09 50.837 158.793 51.1888 158.432 51.4647C157.219 52.3541 155.644 52.3984 154.378 52.4341Z" fill="#2F2E41"/>
<path d="M165.296 40.1077H161.172V40.8763H165.296V40.1077Z" fill="#2F2E41"/>
<path d="M152.281 40.1077H148.157V40.8763H152.281V40.1077Z" fill="#2F2E41"/>
<path d="M189.94 131.228H126.211C125.773 131.23 125.343 131.115 124.964 130.896C124.585 130.678 124.27 130.362 124.051 129.982C123.833 129.601 123.718 129.17 123.719 128.731C123.72 128.292 123.836 127.86 124.056 127.481L155.921 72.0728C156.137 71.6913 156.451 71.3745 156.829 71.155C157.208 70.9355 157.638 70.8212 158.076 70.8238C158.513 70.8212 158.943 70.9355 159.322 71.155C159.7 71.3745 160.014 71.6913 160.23 72.0728L192.095 127.481C192.313 127.861 192.428 128.292 192.428 128.73C192.428 129.169 192.313 129.599 192.095 129.979C191.877 130.359 191.562 130.674 191.184 130.893C190.806 131.113 190.377 131.228 189.94 131.228Z" fill="#2F2E41"/>
<path d="M229.869 176H84.022C83.9204 176 83.8231 175.96 83.7513 175.887C83.6795 175.815 83.6392 175.718 83.6392 175.616C83.6392 175.514 83.6795 175.416 83.7513 175.344C83.8231 175.272 83.9204 175.231 84.022 175.231H229.869C229.971 175.231 230.068 175.272 230.14 175.344C230.212 175.416 230.252 175.514 230.252 175.616C230.252 175.718 230.212 175.815 230.14 175.887C230.068 175.96 229.971 176 229.869 176Z" fill="#3F3D56"/>
<path d="M158.653 23.9899C156.382 14.8475 147.575 7.82781 138.139 8.00246C133.468 8.13404 128.963 9.7739 125.293 12.6787C123.443 14.1243 121.851 15.8738 120.582 17.8533C119.16 20.0815 118.267 22.5968 117.57 25.1355C116.162 30.2652 115.498 36.0698 111.923 40.2589C110.441 41.9546 108.613 43.3112 106.563 44.2368C104.514 45.1624 102.291 45.6356 100.043 45.6243C97.7791 45.5889 95.5539 45.0277 93.542 43.9847C91.53 42.9417 89.7858 41.4452 88.4462 39.6124C85.7553 36.0108 84.4306 31.0297 85.9851 26.683C86.748 24.55 88.3883 22.5351 90.7343 22.1795C91.8042 22.0341 92.8931 22.206 93.867 22.674C94.8408 23.1419 95.6571 23.8856 96.2154 24.8134C97.2704 26.6719 96.933 29.1518 95.6112 30.7911C94.219 32.5177 91.8925 32.9958 89.8405 32.3021C88.876 31.9729 88.0279 31.3689 87.3998 30.5637C86.9409 29.982 86.1276 30.7976 86.5818 31.3734C87.3096 32.2496 88.2493 32.9237 89.311 33.3309C90.3726 33.7381 91.5206 33.8648 92.645 33.699C93.7671 33.5286 94.821 33.0521 95.6918 32.3216C96.5626 31.5911 97.2169 30.6346 97.5833 29.5563C97.985 28.4873 98.0904 27.3288 97.8882 26.2044C97.6861 25.08 97.1839 24.0316 96.4353 23.171C95.6552 22.3194 94.6705 21.6831 93.5753 21.3229C92.4802 20.9627 91.3113 20.8907 90.1805 21.1138C87.7581 21.6287 85.9989 23.6289 85.0859 25.8452C84.1863 28.1478 83.949 30.6578 84.401 33.0892C84.818 35.4354 85.7227 37.6671 87.0559 39.6391C88.3892 41.611 90.1211 43.279 92.1391 44.5343C96.2231 47.0518 101.321 47.3982 105.801 45.781C108.039 44.9861 110.084 43.7221 111.799 42.0731C113.642 40.1963 115.052 37.9367 115.93 35.4533C117.95 30.1436 118.246 24.2021 121.104 19.2111C123.597 14.9733 127.53 11.7807 132.179 10.22C136.801 8.61672 141.861 8.86054 146.309 10.9009C150.732 12.9573 154.294 16.5084 156.374 20.9339C156.869 22.0122 157.261 23.1354 157.544 24.2884C157.723 25.0096 158.832 24.7104 158.653 23.9899Z" fill="#2F2E41"/>
<path d="M299.583 96.4484H209.624C207.899 96.4464 206.245 95.7575 205.025 94.5327C203.805 93.3079 203.119 91.6472 203.117 89.9151V49.1785C203.119 47.4464 203.805 45.7858 205.025 44.561C206.245 43.3362 207.899 42.6472 209.624 42.6453H299.583C301.308 42.6472 302.962 43.3362 304.182 44.561C305.402 45.7858 306.088 47.4464 306.09 49.1785V89.9151C306.088 91.6472 305.402 93.3079 304.182 94.5327C302.962 95.7575 301.308 96.4464 299.583 96.4484ZM209.624 43.4139C208.102 43.4156 206.642 44.0235 205.566 45.1042C204.49 46.1849 203.884 47.6502 203.882 49.1785V89.9151C203.884 91.4435 204.49 92.9087 205.566 93.9894C206.642 95.0701 208.102 95.678 209.624 95.6797H299.583C301.105 95.678 302.564 95.0701 303.641 93.9894C304.717 92.9087 305.323 91.4435 305.325 89.9151V49.1785C305.323 47.6502 304.717 46.1849 303.641 45.1042C302.564 44.0235 301.105 43.4156 299.583 43.4139H209.624Z" fill="#3F3D56"/>
<path d="M227.762 70.2664C232.36 70.2664 236.087 66.5244 236.087 61.9085C236.087 57.2925 232.36 53.5505 227.762 53.5505C223.164 53.5505 219.437 57.2925 219.437 61.9085C219.437 66.5244 223.164 70.2664 227.762 70.2664Z" fill="#CCCCCC"/>
<path d="M245.841 56.3366C245.477 56.3427 245.13 56.4921 244.874 56.7527C244.619 57.0132 244.476 57.3641 244.476 57.7295C244.476 58.095 244.619 58.4458 244.874 58.7064C245.13 58.967 245.477 59.1164 245.841 59.1225H288.285C288.652 59.1276 289.007 58.9862 289.27 58.7294C289.534 58.4725 289.686 58.1212 289.692 57.7523C289.698 57.3835 289.558 57.0274 289.303 56.762C289.047 56.4966 288.698 56.3436 288.33 56.3366C288.315 56.3364 288.3 56.3364 288.285 56.3366H245.841Z" fill="#CCCCCC"/>
<path d="M245.841 64.6945C245.477 64.7006 245.13 64.85 244.874 65.1106C244.619 65.3711 244.476 65.722 244.476 66.0874C244.476 66.4529 244.619 66.8037 244.874 67.0643C245.13 67.3249 245.477 67.4743 245.841 67.4803H288.285C288.652 67.4855 289.007 67.3441 289.27 67.0873C289.534 66.8304 289.686 66.4791 289.692 66.1102C289.698 65.7414 289.558 65.3853 289.303 65.1199C289.047 64.8545 288.698 64.7015 288.33 64.6945C288.315 64.6943 288.3 64.6943 288.285 64.6945H245.841Z" fill="#CCCCCC"/>
<path d="M220.726 74.3991C220.362 74.4052 220.015 74.5546 219.76 74.8152C219.504 75.0757 219.361 75.4266 219.361 75.792C219.361 76.1575 219.504 76.5083 219.76 76.7689C220.015 77.0295 220.362 77.1789 220.726 77.185H288.435C288.618 77.1884 288.799 77.1557 288.969 77.0887C289.139 77.0217 289.294 76.9217 289.425 76.7944C289.556 76.6672 289.661 76.5152 289.734 76.3471C289.807 76.179 289.846 75.9982 289.849 75.815C289.852 75.6317 289.819 75.4497 289.752 75.2793C289.684 75.109 289.584 74.9536 289.457 74.822C289.33 74.6905 289.179 74.5855 289.011 74.5129C288.843 74.4403 288.663 74.4017 288.481 74.3991C288.465 74.3989 288.45 74.3989 288.435 74.3991H220.726Z" fill="#CCCCCC"/>
<path d="M220.726 82.757C220.362 82.7631 220.015 82.9125 219.76 83.1731C219.504 83.4336 219.361 83.7845 219.361 84.1499C219.361 84.5154 219.504 84.8662 219.76 85.1268C220.015 85.3874 220.362 85.5368 220.726 85.5429H288.435C288.618 85.5463 288.799 85.5136 288.969 85.4466C289.139 85.3796 289.294 85.2796 289.425 85.1523C289.556 85.0251 289.661 84.8731 289.734 84.705C289.807 84.5369 289.846 84.3561 289.849 84.1729C289.852 83.9896 289.819 83.8076 289.752 83.6372C289.684 83.4669 289.584 83.3115 289.457 83.1799C289.33 83.0484 289.179 82.9434 289.011 82.8708C288.843 82.7982 288.663 82.7596 288.481 82.757C288.465 82.7568 288.45 82.7568 288.435 82.757H220.726Z" fill="#CCCCCC"/>
<path d="M303.453 86.311C313.516 86.4836 313.515 101.512 303.452 101.683C293.389 101.511 293.39 86.4821 303.453 86.311Z" fill="#217FED"/>
<path d="M303.453 98.1824C303.31 98.1822 303.173 98.1252 303.073 98.024C302.972 97.9227 302.915 97.7854 302.915 97.6422V94.7782C302.915 94.7144 302.889 94.6532 302.845 94.608C302.8 94.5629 302.739 94.5375 302.675 94.5374H299.822C299.68 94.5374 299.543 94.4805 299.442 94.3792C299.341 94.2779 299.284 94.1404 299.284 93.9972C299.284 93.8539 299.341 93.7165 299.442 93.6152C299.543 93.5138 299.68 93.4569 299.822 93.4569H302.675C302.739 93.4569 302.8 93.4315 302.845 93.3864C302.889 93.3413 302.915 93.2801 302.915 93.2163V90.3522C302.915 90.2089 302.972 90.0715 303.072 89.9702C303.173 89.8689 303.31 89.812 303.453 89.812C303.596 89.812 303.732 89.8689 303.833 89.9702C303.934 90.0715 303.991 90.2089 303.991 90.3522V93.2163C303.991 93.2801 304.016 93.3413 304.061 93.3864C304.106 93.4315 304.167 93.4569 304.231 93.4569H307.083C307.226 93.4569 307.363 93.5138 307.464 93.6152C307.565 93.7165 307.622 93.8539 307.622 93.9972C307.622 94.1404 307.565 94.2779 307.464 94.3792C307.363 94.4805 307.226 94.5374 307.083 94.5374H304.231C304.167 94.5375 304.106 94.5629 304.061 94.608C304.016 94.6532 303.991 94.7144 303.991 94.7782V97.6422C303.991 97.7854 303.934 97.9227 303.833 98.0239C303.732 98.1252 303.596 98.1822 303.453 98.1824Z" fill="white"/>
<path d="M101.674 147.946H11.7161C9.99079 147.944 8.33667 147.255 7.11667 146.03C5.89668 144.805 5.21044 143.145 5.2085 141.412V100.676C5.21044 98.9437 5.89668 97.2831 7.11668 96.0583C8.33667 94.8335 9.99079 94.1445 11.7161 94.1426H101.674C103.4 94.1445 105.054 94.8335 106.274 96.0583C107.494 97.2831 108.18 98.9437 108.182 100.676V141.412C108.18 143.145 107.494 144.805 106.274 146.03C105.054 147.255 103.4 147.944 101.674 147.946ZM11.7161 94.9112C10.1938 94.9129 8.73426 95.5208 7.6578 96.6015C6.58133 97.6822 5.97582 99.1475 5.9741 100.676V141.412C5.97582 142.941 6.58133 144.406 7.6578 145.487C8.73426 146.567 10.1938 147.175 11.7161 147.177H101.674C103.197 147.175 104.656 146.567 105.733 145.487C106.809 144.406 107.415 142.941 107.416 141.412V100.676C107.415 99.1475 106.809 97.6822 105.733 96.6015C104.656 95.5208 103.197 94.9129 101.674 94.9112H11.7161Z" fill="#3F3D56"/>
<path d="M22.8177 111.245C22.4537 111.251 22.1067 111.4 21.8514 111.661C21.5962 111.921 21.4531 112.272 21.4531 112.638C21.4531 113.003 21.5962 113.354 21.8514 113.615C22.1067 113.875 22.4537 114.025 22.8177 114.031H90.5269C90.7094 114.034 90.8908 114.001 91.0606 113.934C91.2305 113.867 91.3856 113.767 91.5169 113.64C91.6482 113.513 91.7533 113.361 91.826 113.193C91.8987 113.025 91.9377 112.844 91.9407 112.661C91.9436 112.477 91.9106 112.295 91.8434 112.125C91.7762 111.955 91.6762 111.799 91.5491 111.668C91.4221 111.536 91.2704 111.431 91.1028 111.359C90.9352 111.286 90.7549 111.247 90.5724 111.245C90.5573 111.245 90.5421 111.245 90.5269 111.245H22.8177Z" fill="#CCCCCC"/>
<path d="M22.8177 119.603C22.4537 119.609 22.1067 119.758 21.8514 120.019C21.5962 120.279 21.4531 120.63 21.4531 120.996C21.4531 121.361 21.5962 121.712 21.8514 121.973C22.1067 122.233 22.4537 122.382 22.8177 122.389H90.5269C90.7094 122.392 90.8908 122.359 91.0606 122.292C91.2305 122.225 91.3856 122.125 91.5169 121.998C91.6482 121.871 91.7533 121.719 91.826 121.551C91.8987 121.383 91.9377 121.202 91.9407 121.019C91.9436 120.835 91.9106 120.653 91.8434 120.483C91.7762 120.313 91.6762 120.157 91.5491 120.026C91.4221 119.894 91.2704 119.789 91.1028 119.717C90.9352 119.644 90.7549 119.605 90.5724 119.603C90.5573 119.602 90.5421 119.602 90.5269 119.603H22.8177Z" fill="#CCCCCC"/>
<path d="M22.8177 128.058C22.4537 128.064 22.1067 128.213 21.8514 128.474C21.5962 128.734 21.4531 129.085 21.4531 129.45C21.4531 129.816 21.5962 130.167 21.8514 130.427C22.1067 130.688 22.4537 130.837 22.8177 130.843H90.5269C90.7094 130.847 90.8908 130.814 91.0606 130.747C91.2305 130.68 91.3856 130.58 91.5169 130.453C91.6482 130.326 91.7533 130.174 91.826 130.005C91.8987 129.837 91.9377 129.657 91.9407 129.473C91.9436 129.29 91.9106 129.108 91.8434 128.938C91.7762 128.767 91.6762 128.612 91.5491 128.48C91.4221 128.349 91.2704 128.244 91.1028 128.171C90.9352 128.099 90.7549 128.06 90.5724 128.058C90.5573 128.057 90.5421 128.057 90.5269 128.058H22.8177Z" fill="#CCCCCC"/>
<path d="M7.54733 137.808C17.6112 137.981 17.6096 153.01 7.54701 153.181C-2.51651 153.008 -2.51494 137.979 7.54733 137.808Z" fill="#217FED"/>
<path d="M7.54711 149.679C7.40446 149.679 7.26771 149.622 7.16684 149.521C7.06597 149.42 7.00923 149.283 7.00906 149.139V146.275C7.009 146.211 6.98372 146.15 6.93878 146.105C6.89383 146.06 6.83288 146.035 6.7693 146.035H3.91655C3.77383 146.035 3.63695 145.978 3.53603 145.876C3.43511 145.775 3.37842 145.638 3.37842 145.494C3.37842 145.351 3.43511 145.214 3.53603 145.112C3.63695 145.011 3.77383 144.954 3.91655 144.954H6.76933C6.83289 144.954 6.89383 144.929 6.93878 144.883C6.98373 144.838 7.00901 144.777 7.00908 144.713V141.849C7.00946 141.706 7.06631 141.569 7.16717 141.468C7.26802 141.367 7.40465 141.311 7.5471 141.311C7.68954 141.311 7.82617 141.367 7.92703 141.468C8.02789 141.569 8.08474 141.706 8.08512 141.849V144.713C8.08519 144.777 8.11047 144.838 8.15542 144.883C8.20037 144.929 8.26132 144.954 8.32488 144.954H11.1777C11.3204 144.954 11.4573 145.011 11.5582 145.112C11.6591 145.214 11.7158 145.351 11.7158 145.494C11.7158 145.638 11.6591 145.775 11.5582 145.876C11.4573 145.978 11.3204 146.035 11.1777 146.035H8.32488C8.2613 146.035 8.20035 146.06 8.1554 146.105C8.11046 146.15 8.08518 146.211 8.08512 146.275V149.139C8.08495 149.282 8.02822 149.42 7.92736 149.521C7.8265 149.622 7.68975 149.679 7.54711 149.679Z" fill="white"/>
</g>
<defs>
<clipPath id="clip0">
<rect width="311" height="176" fill="white"/>
</clipPath>
</defs>
</svg>
