<svg width="284" height="227" viewBox="0 0 284 227" fill="none" xmlns="http://www.w3.org/2000/svg">
<g clip-path="url(#clip0)">
<path d="M142.299 193.148C123.057 193.148 104.409 186.486 89.5347 174.296C74.66 162.106 64.4782 145.144 60.7242 126.298C56.9702 107.453 59.8763 87.8904 68.9472 70.9446C78.0181 53.9987 92.6927 40.7178 110.471 33.3647C128.249 26.0116 148.03 25.0412 166.444 30.619C184.858 36.1967 200.765 47.9775 211.456 63.9539C222.147 79.9303 226.959 99.1139 225.073 118.236C223.187 137.358 214.719 155.236 201.112 168.823C193.407 176.559 184.241 182.692 174.146 186.868C164.051 191.043 153.226 193.178 142.299 193.148ZM142.299 27.681C96.79 27.681 59.7653 64.652 59.7653 110.095C59.7653 155.539 96.79 192.51 142.299 192.51C187.809 192.51 224.834 155.539 224.834 110.095C224.834 64.652 187.809 27.681 142.299 27.681Z" fill="#CCCCCC"/>
<path d="M173.183 205.603V121.932H110.818V205.603H173.183Z" fill="#2F2E41"/>
<path d="M183.896 119.377H100.104V152.59H183.896V119.377Z" fill="#3F3D56"/>
<path d="M183.896 156.423H100.104V189.636H183.896V156.423Z" fill="#3F3D56"/>
<path d="M183.896 193.468H100.104V226.681H183.896V193.468Z" fill="#3F3D56"/>
<path d="M183.896 133.46H100.104V138.569H183.896V133.46Z" fill="#217FED"/>
<path d="M183.896 170.505H100.104V175.615H183.896V170.505Z" fill="#217FED"/>
<path d="M183.896 207.55H100.104V212.66H183.896V207.55Z" fill="#217FED"/>
<path d="M167.585 126.084C168.645 126.084 169.504 125.226 169.504 124.168C169.504 123.109 168.645 122.251 167.585 122.251C166.526 122.251 165.667 123.109 165.667 124.168C165.667 125.226 166.526 126.084 167.585 126.084Z" fill="#217FED"/>
<path d="M174.302 126.084C175.362 126.084 176.221 125.226 176.221 124.168C176.221 123.109 175.362 122.251 174.302 122.251C173.242 122.251 172.383 123.109 172.383 124.168C172.383 125.226 173.242 126.084 174.302 126.084Z" fill="#217FED"/>
<path d="M181.018 126.084C182.078 126.084 182.937 125.226 182.937 124.168C182.937 123.109 182.078 122.251 181.018 122.251C179.958 122.251 179.099 123.109 179.099 124.168C179.099 125.226 179.958 126.084 181.018 126.084Z" fill="#217FED"/>
<path d="M167.585 162.49C168.645 162.49 169.504 161.632 169.504 160.574C169.504 159.516 168.645 158.658 167.585 158.658C166.526 158.658 165.667 159.516 165.667 160.574C165.667 161.632 166.526 162.49 167.585 162.49Z" fill="#217FED"/>
<path d="M174.302 162.49C175.362 162.49 176.221 161.632 176.221 160.574C176.221 159.516 175.362 158.658 174.302 158.658C173.242 158.658 172.383 159.516 172.383 160.574C172.383 161.632 173.242 162.49 174.302 162.49Z" fill="#217FED"/>
<path d="M181.018 162.49C182.078 162.49 182.937 161.632 182.937 160.574C182.937 159.516 182.078 158.658 181.018 158.658C179.958 158.658 179.099 159.516 179.099 160.574C179.099 161.632 179.958 162.49 181.018 162.49Z" fill="#217FED"/>
<path d="M167.585 198.897C168.645 198.897 169.504 198.039 169.504 196.981C169.504 195.922 168.645 195.064 167.585 195.064C166.526 195.064 165.667 195.922 165.667 196.981C165.667 198.039 166.526 198.897 167.585 198.897Z" fill="#217FED"/>
<path d="M174.302 198.897C175.362 198.897 176.221 198.039 176.221 196.981C176.221 195.922 175.362 195.064 174.302 195.064C173.242 195.064 172.383 195.922 172.383 196.981C172.383 198.039 173.242 198.897 174.302 198.897Z" fill="#217FED"/>
<path d="M181.018 198.897C182.078 198.897 182.937 198.039 182.937 196.981C182.937 195.922 182.078 195.064 181.018 195.064C179.958 195.064 179.099 195.922 179.099 196.981C179.099 198.039 179.958 198.897 181.018 198.897Z" fill="#217FED"/>
<path d="M284 226.361H0V227H284V226.361Z" fill="#3F3D56"/>
<path d="M77.3575 86.566V145.963C77.3572 147.206 76.8628 148.398 75.9828 149.276C75.1028 150.155 73.9094 150.649 72.665 150.649H49.5489C48.3042 150.649 47.1103 150.156 46.23 149.277C45.3496 148.398 44.8549 147.206 44.8545 145.963V86.566C44.8549 85.3231 45.3496 84.1312 46.23 83.2525C47.1103 82.3738 48.3042 81.8802 49.5489 81.8804H52.3531C52.2154 82.2185 52.163 82.5852 52.2005 82.9483C52.238 83.3113 52.3642 83.6597 52.5681 83.9626C52.7719 84.2656 53.0472 84.5139 53.3697 84.6857C53.6922 84.8576 54.052 84.9477 54.4175 84.9481H67.5968C67.9623 84.9477 68.3221 84.8576 68.6446 84.6857C68.9671 84.5139 69.2424 84.2656 69.4463 83.9626C69.6501 83.6597 69.7764 83.3114 69.8139 82.9483C69.8513 82.5852 69.7989 82.2185 69.6613 81.8804H72.665C73.9094 81.8806 75.1028 82.3744 75.9828 83.253C76.8628 84.1317 77.3572 85.3234 77.3575 86.566Z" fill="#E6E6E6"/>
<path d="M75.818 93.2229H46.3945V134.1H75.818V93.2229Z" fill="white"/>
<path d="M66.4922 121.332H54.7485V122.002H66.4922V121.332Z" fill="#E6E6E6"/>
<path d="M72.9081 123.792H54.7368V124.462H72.9081V123.792Z" fill="#217FED"/>
<path d="M68.997 126.11H54.7368V126.78H68.997V126.11Z" fill="#E6E6E6"/>
<path d="M63.1252 128.428H54.7368V129.098H63.1252V128.428Z" fill="#E6E6E6"/>
<path d="M67.3193 130.746H54.7368V131.416H67.3193V130.746Z" fill="#E6E6E6"/>
<path d="M50.765 121.139H49.4229V122.479H50.765V121.139Z" fill="#E6E6E6"/>
<path d="M50.765 123.457H49.4229V124.797H50.765V123.457Z" fill="#217FED"/>
<path d="M50.765 125.775H49.4229V127.115H50.765V125.775Z" fill="#E6E6E6"/>
<path d="M50.765 128.093H49.4229V129.433H50.765V128.093Z" fill="#E6E6E6"/>
<path d="M50.765 130.411H49.4229V131.752H50.765V130.411Z" fill="#E6E6E6"/>
<path d="M67.0816 98.3328H55.249V110.148H67.0816V98.3328Z" fill="#E6E6E6"/>
<path d="M181.336 0.0444336H102.698V50.3349H181.336V0.0444336Z" fill="#E6E6E6"/>
<path d="M173.825 14.114H108.626V38.7156H173.825V14.114Z" fill="white"/>
<path d="M136.153 18.3762H120.505V19.2691H136.153V18.3762Z" fill="#E6E6E6"/>
<path d="M144.701 21.6548H120.489V22.5476H144.701V21.6548Z" fill="#217FED"/>
<path d="M139.49 24.7434H120.489V25.6363H139.49V24.7434Z" fill="#E6E6E6"/>
<path d="M131.666 27.832H120.489V28.7249H131.666V27.832Z" fill="#E6E6E6"/>
<path d="M137.255 30.9207H120.489V31.8135H137.255V30.9207Z" fill="#E6E6E6"/>
<path d="M115.197 18.1196H113.408V19.9054H115.197V18.1196Z" fill="#E6E6E6"/>
<path d="M115.197 21.2083H113.408V22.994H115.197V21.2083Z" fill="#217FED"/>
<path d="M115.197 24.2969H113.408V26.0826H115.197V24.2969Z" fill="#E6E6E6"/>
<path d="M115.197 27.3855H113.408V29.1712H115.197V27.3855Z" fill="#E6E6E6"/>
<path d="M115.197 30.4744H113.408V32.2601H115.197V30.4744Z" fill="#E6E6E6"/>
<path d="M170.625 17.1965H154.615V33.1831H170.625V17.1965Z" fill="#E6E6E6"/>
<path d="M181.303 0H102.664V3.336H181.303V0Z" fill="#217FED"/>
<path d="M105.147 2.37518C105.517 2.37518 105.817 2.07537 105.817 1.70553C105.817 1.3357 105.517 1.03589 105.147 1.03589C104.776 1.03589 104.476 1.3357 104.476 1.70553C104.476 2.07537 104.776 2.37518 105.147 2.37518Z" fill="white"/>
<path d="M107.497 2.37518C107.867 2.37518 108.167 2.07537 108.167 1.70553C108.167 1.3357 107.867 1.03589 107.497 1.03589C107.126 1.03589 106.826 1.3357 106.826 1.70553C106.826 2.07537 107.126 2.37518 107.497 2.37518Z" fill="white"/>
<path d="M109.847 2.37518C110.218 2.37518 110.518 2.07537 110.518 1.70553C110.518 1.3357 110.218 1.03589 109.847 1.03589C109.477 1.03589 109.177 1.3357 109.177 1.70553C109.177 2.07537 109.477 2.37518 109.847 2.37518Z" fill="white"/>
<path d="M233.995 94.1484H214.806V104.048H233.995V94.1484Z" fill="#E6E6E6"/>
<path d="M233.995 129.597H214.806V139.497H233.995V129.597Z" fill="#E6E6E6"/>
<path d="M224.401 132.79C233.233 132.79 240.392 125.641 240.392 116.823C240.392 108.004 233.233 100.855 224.401 100.855C215.57 100.855 208.41 108.004 208.41 116.823C208.41 125.641 215.57 132.79 224.401 132.79Z" fill="#E6E6E6"/>
<path d="M224.401 129.277C231.289 129.277 236.874 123.701 236.874 116.823C236.874 109.944 231.289 104.368 224.401 104.368C217.512 104.368 211.928 109.944 211.928 116.823C211.928 123.701 217.512 129.277 224.401 129.277Z" fill="white"/>
<path d="M229.99 113.41H220.316V113.962H229.99V113.41Z" fill="#E2E2E2"/>
<path d="M235.275 115.437H220.307V115.989H235.275V115.437Z" fill="#217FED"/>
<path d="M232.053 117.346H220.307V117.898H232.053V117.346Z" fill="#E2E2E2"/>
<path d="M227.216 119.256H220.307V119.808H227.216V119.256Z" fill="#E2E2E2"/>
<path d="M230.671 121.165H220.307V121.717H230.671V121.165Z" fill="#E2E2E2"/>
<path d="M217.035 113.251H215.93V114.355H217.035V113.251Z" fill="#E2E2E2"/>
<path d="M217.035 115.161H215.93V116.265H217.035V115.161Z" fill="#217FED"/>
<path d="M217.035 117.07H215.93V118.174H217.035V117.07Z" fill="#E2E2E2"/>
<path d="M217.035 118.98H215.93V120.084H217.035V118.98Z" fill="#E2E2E2"/>
<path d="M217.035 120.889H215.93V121.993H217.035V120.889Z" fill="#E2E2E2"/>
</g>
<defs>
<clipPath id="clip0">
<rect width="284" height="227" fill="white"/>
</clipPath>
</defs>
</svg>
