<svg width="315" height="206" viewBox="0 0 315 206" fill="none" xmlns="http://www.w3.org/2000/svg">
<path d="M52.6978 134.828C52.6978 134.828 56.5304 140.906 55.1616 142.552C53.7929 144.198 65.4309 144.239 65.4309 144.239C65.4309 144.239 63.6828 135.396 64.1973 133.361L52.6978 134.828Z" fill="#FFB8B8"/>
<path d="M58.8233 137.031C65.4607 137.031 70.8413 131.65 70.8413 125.012C70.8413 118.375 65.4607 112.994 58.8233 112.994C52.1859 112.994 46.8052 118.375 46.8052 125.012C46.8052 131.65 52.1859 137.031 58.8233 137.031Z" fill="#2F2E41"/>
<path d="M87.0898 190.154V197.279L94.2142 195.794L93.6208 190.748L87.0898 190.154Z" fill="#FFB8B8"/>
<path d="M112.322 191.341L132.212 194.607L127.165 202.028C127.165 202.028 113.213 197.278 109.651 197.278C106.088 197.278 112.322 191.341 112.322 191.341Z" fill="#FFB8B8"/>
<path d="M67.2005 177.092C67.2005 177.092 82.0433 159.874 86.793 160.765C91.5427 161.655 93.6207 166.999 93.6207 166.999L96.2924 193.419C96.2924 193.419 86.793 194.31 86.793 193.419C86.793 192.529 85.0119 173.53 85.0119 173.53C85.0119 173.53 71.0596 204.403 63.6382 183.92L67.2005 177.092Z" fill="#D0CDE1"/>
<path d="M43.1548 188.67C43.1548 188.67 43.4516 204.222 52.3573 205.112C61.263 206.003 71.0593 198.466 71.0593 198.466L87.0895 190.786C87.0895 190.786 106.088 200.841 111.729 198.169C111.729 198.169 117.666 191.935 113.807 190.154C109.948 188.373 113.51 190.154 113.51 190.154L90.6518 178.28C90.6518 178.28 86.199 177.092 78.4807 180.358C70.7624 183.623 60.3725 185.107 60.3725 185.107L43.1548 188.67Z" fill="#D0CDE1"/>
<path d="M57.9975 137.907C62.916 137.907 66.9032 133.92 66.9032 129.001C66.9032 124.083 62.916 120.095 57.9975 120.095C53.079 120.095 49.0918 124.083 49.0918 129.001C49.0918 133.92 53.079 137.907 57.9975 137.907Z" fill="#FFB8B8"/>
<path d="M70.7627 153.937L70.169 166.405C70.169 166.405 70.4658 182.732 67.7941 183.92C66.4434 184.519 63.7302 185.725 61.2217 187.043C59.3397 188.028 57.5734 189.073 56.5878 189.973C56.3265 190.195 56.1012 190.456 55.9199 190.747C54.7324 192.825 47.0142 192.529 45.233 191.044C43.4519 189.56 44.6393 192.825 43.155 193.419C41.7182 193.995 39.7263 189.287 40.9464 182.257C40.985 182.023 41.0295 181.785 41.077 181.545C42.4396 174.732 40.2993 158.414 40.6288 152.109C40.648 151.627 40.6985 151.147 40.7802 150.672C41.6707 145.922 53.0344 136.257 55.1599 140.374C57.7782 145.456 63.7925 140.813 64.8255 138.501C70.7627 138.204 72.8407 145.328 72.8407 145.328L70.7627 153.937Z" fill="#217FED"/>
<path d="M94.8081 194.607C94.8081 194.607 90.0584 196.388 88.5741 196.091C87.0898 195.794 85.6055 196.982 85.6055 198.763C85.6055 200.544 83.8244 204.7 86.4961 204.997C89.1678 205.294 100.151 204.7 102.526 205.59C102.526 205.59 113.213 205.887 112.323 201.434C111.432 196.982 106.979 197.278 106.979 197.278C106.979 197.278 94.8081 196.685 94.8081 194.607Z" fill="#2F2E41"/>
<path d="M129.54 195.497C129.54 195.497 130.134 193.716 131.024 193.716C131.915 193.716 139.039 194.903 139.93 194.607C140.821 194.31 151.211 193.716 149.429 198.763C147.648 203.809 141.711 204.403 141.711 204.403C141.711 204.403 131.024 203.215 129.54 203.512C128.056 203.809 122.712 203.512 123.603 202.028C124.493 200.544 130.134 197.872 129.54 195.497Z" fill="#2F2E41"/>
<path d="M102.519 152.858L104.147 159.576C104.165 159.65 104.163 159.729 104.139 159.802L96.7514 182.889C96.7221 182.98 96.6624 183.059 96.5822 183.112C96.502 183.164 96.4061 183.188 96.3106 183.179C96.2151 183.169 96.1256 183.127 96.0573 183.06C95.9889 182.993 95.9457 182.904 95.9348 182.808L94.9128 173.815C94.9061 173.755 94.9122 173.695 94.9308 173.637L101.712 152.826C101.74 152.74 101.796 152.664 101.871 152.612C101.946 152.56 102.036 152.534 102.127 152.537C102.218 152.541 102.306 152.574 102.377 152.632C102.447 152.69 102.497 152.769 102.519 152.858Z" fill="#3F3D56"/>
<path d="M101.92 153.425L103.424 159.189L96.9075 180.24L95.4038 173.724L101.92 153.425Z" fill="white"/>
<path d="M69.0899 184.751C69.3406 185.503 95.1531 184.5 95.4038 184.25C95.6222 183.936 95.807 183.6 95.9551 183.247C96.1907 182.746 96.4062 182.245 96.4062 182.245L95.4038 174.13L69.8418 173.223C69.8418 173.223 69.2027 180.1 69.0724 183.247C69.028 183.748 69.0339 184.252 69.0899 184.751Z" fill="#3F3D56"/>
<path opacity="0.1" d="M92.1456 175.228L92.6468 182.245H81.3696V175.228H92.1456Z" fill="black"/>
<path opacity="0.1" d="M77.6107 177.483L77.6781 177.47L77.3599 180.49H71.0947V177.483H77.6107Z" fill="black"/>
<path opacity="0.1" d="M69.0899 184.751C69.3406 185.503 95.1531 184.5 95.4037 184.25C95.6222 183.936 95.807 183.6 95.955 183.247H69.0724C69.028 183.748 69.0339 184.252 69.0899 184.751Z" fill="black"/>
<path d="M60.8141 115.224C62.6639 115.224 64.1634 113.724 64.1634 111.874C64.1634 110.024 62.6639 108.525 60.8141 108.525C58.9644 108.525 57.4648 110.024 57.4648 111.874C57.4648 113.724 58.9644 115.224 60.8141 115.224Z" fill="#2F2E41"/>
<path d="M59.8071 115.52C59.8071 115.52 56.3851 121.212 48.428 123.343C40.4708 125.473 48.363 137.431 48.363 137.431C48.363 137.431 45.4931 133.083 49.6325 128.478C53.7719 123.873 60.4333 120.725 59.8071 115.52Z" fill="#2F2E41"/>
<path opacity="0.1" d="M61.2217 187.043C60.4884 188.429 59.6276 189.869 59.4821 190.451C59.3841 190.845 58.2977 190.617 56.5877 189.973C53.1591 188.675 47.216 185.704 41.6707 182.732C41.4151 182.597 41.1726 182.438 40.9464 182.257C40.985 182.023 41.0295 181.785 41.077 181.545C42.4396 174.732 40.2992 158.414 40.6287 152.109L43.155 151.266L48.2016 156.015V176.202C48.2016 176.202 61.2632 183.326 62.1538 183.92C62.608 184.223 61.9816 185.603 61.2217 187.043Z" fill="black"/>
<path d="M72.2469 170.858L80.262 175.014C80.262 175.014 85.0117 169.967 87.9802 173.827C90.9488 177.686 79.3714 178.873 79.3714 178.873C79.3714 178.873 69.2783 176.498 68.9814 173.233C68.6846 169.967 72.2469 170.858 72.2469 170.858Z" fill="#FFB8B8"/>
<path d="M58.8886 181.842L63.6383 183.029C63.6383 183.029 68.9817 176.498 74.622 178.873C80.2622 181.248 67.4974 185.998 67.4974 185.998C67.4974 185.998 60.6697 189.56 57.998 186.592C55.3263 183.623 58.8886 181.842 58.8886 181.842Z" fill="#FFB8B8"/>
<path d="M69.278 142.657C69.5749 142.954 72.8403 145.328 72.8403 145.328C72.8403 145.328 73.7309 156.609 72.5435 158.984C71.356 161.359 70.4655 161.359 71.356 162.546C72.2466 163.734 73.434 162.843 72.2466 164.921C71.0592 166.999 69.8718 166.702 70.7623 167.593C71.6529 168.483 71.356 168.78 71.356 168.78L74.9183 171.749C74.9183 171.749 72.7328 175.23 69.9664 174.973C67.2001 174.717 64.8252 161.359 64.8252 161.359L69.278 142.657Z" fill="#217FED"/>
<path d="M43.1548 149.781L40.483 150.672C40.483 150.672 33.3585 176.795 41.6705 181.248C49.9824 185.701 59.185 190.154 59.4819 188.966C59.7787 187.779 63.0441 183.029 62.1536 182.435C61.263 181.842 48.2013 174.717 48.2013 174.717V154.531L43.1548 149.781Z" fill="#217FED"/>
<path opacity="0.1" d="M47.1623 160.616L46.5688 174.866L62.3022 182.287L47.7561 174.866L47.1623 160.616Z" fill="black"/>
<path d="M276.121 47.4487V70.7473C276.121 70.9626 276.035 71.1689 275.883 71.3211C275.731 71.4733 275.524 71.5591 275.309 71.5597H274.731V192.931C274.731 196.289 273.396 199.51 271.022 201.885C268.647 204.26 265.426 205.594 262.067 205.594H186.229C184.566 205.594 182.92 205.267 181.384 204.63C179.848 203.994 178.452 203.061 177.276 201.885C176.101 200.709 175.168 199.313 174.532 197.776C173.896 196.24 173.569 194.593 173.569 192.931V75.8164H173.15C172.999 75.8167 172.853 75.7567 172.745 75.6496C172.637 75.5426 172.576 75.3972 172.576 75.2453V61.9855C172.576 61.91 172.591 61.8353 172.619 61.7656C172.648 61.6959 172.691 61.6325 172.744 61.5791C172.797 61.5258 172.861 61.4834 172.93 61.4546C173 61.4257 173.075 61.4108 173.15 61.4108H173.569V56.4163H173.147C172.987 56.4156 172.835 56.3518 172.722 56.2387C172.61 56.1257 172.547 55.9726 172.547 55.8132V42.7343C172.548 42.5755 172.611 42.4232 172.723 42.3109C172.836 42.1985 172.988 42.1352 173.147 42.1348H173.569V35.3169H173.14C173.07 35.317 173.001 35.3033 172.936 35.2766C172.871 35.2499 172.813 35.2107 172.763 35.1613C172.714 35.1119 172.675 35.0532 172.648 34.9886C172.621 34.924 172.608 34.8547 172.608 34.7848V27.6476C172.607 27.5061 172.663 27.3702 172.763 27.2698C172.863 27.1694 172.998 27.1126 173.14 27.112H173.569V12.6603C173.569 9.30262 174.903 6.0825 177.277 3.70825C179.652 1.33401 182.872 0.000122296 186.229 1.29574e-10H262.067C265.425 -1.51794e-05 268.646 1.33372 271.02 3.70789C273.395 6.08206 274.73 9.30225 274.731 12.6603V46.6364H275.309C275.524 46.6369 275.731 46.7227 275.883 46.8749C276.035 47.0271 276.121 47.2334 276.121 47.4487Z" fill="#3F3D56"/>
<path d="M227.802 6.4939H215.479C214.981 6.4939 214.577 6.89759 214.577 7.39558V8.46071C214.577 8.95869 214.981 9.36239 215.479 9.36239H227.802C228.3 9.36239 228.704 8.95869 228.704 8.46071V7.39558C228.704 6.89759 228.3 6.4939 227.802 6.4939Z" fill="#E6E8EC"/>
<path d="M232.467 9.55531C233.365 9.55531 234.094 8.82687 234.094 7.92829C234.094 7.02971 233.365 6.30127 232.467 6.30127C231.568 6.30127 230.84 7.02971 230.84 7.92829C230.84 8.82687 231.568 9.55531 232.467 9.55531Z" fill="#E6E8EC"/>
<path d="M268.667 15.1645V193.98C268.666 196.111 267.819 198.153 266.313 199.659C264.806 201.165 262.763 202.011 260.633 202.011H188.037C186.982 202.013 185.936 201.807 184.961 201.404C183.986 201.001 183.099 200.41 182.353 199.663C181.606 198.917 181.015 198.031 180.611 197.056C180.208 196.081 180.001 195.036 180.002 193.98V15.1645C180.002 14.1094 180.21 13.0646 180.614 12.0897C181.018 11.1149 181.61 10.2292 182.356 9.48308C183.102 8.73698 183.987 8.14516 184.962 7.74139C185.937 7.33763 186.982 7.12984 188.037 7.12988H198.902V8.52397C198.902 10.2786 199.599 11.9613 200.84 13.202C202.081 14.4427 203.764 15.1397 205.518 15.1397H242.438C244.193 15.1397 245.876 14.4427 247.116 13.202C248.357 11.9613 249.054 10.2786 249.054 8.52397V7.12988H260.633C261.688 7.12954 262.733 7.33713 263.708 7.74079C264.683 8.14444 265.568 8.73626 266.315 9.48241C267.061 10.2286 267.653 11.1144 268.056 12.0894C268.46 13.0644 268.667 14.1093 268.667 15.1645Z" fill="white"/>
<path d="M261.375 124.85H187.591V134.428H261.375V124.85Z" fill="#E6E6E6"/>
<path d="M261.375 141.877H187.591V151.455H261.375V141.877Z" fill="#E6E6E6"/>
<path d="M261.375 158.905H187.591V168.482H261.375V158.905Z" fill="#E6E6E6"/>
<path d="M253.216 39.3603C257.134 39.3603 260.31 36.184 260.31 32.2657C260.31 28.3475 257.134 25.1711 253.216 25.1711C249.297 25.1711 246.121 28.3475 246.121 32.2657C246.121 36.184 249.297 39.3603 253.216 39.3603Z" fill="#217FED"/>
<path d="M261.227 56.0327H187.443V104.985H261.227V56.0327Z" fill="#E6E6E6"/>
<path d="M216.823 83.5566C218.978 91.5203 226.357 96.4524 226.357 96.4524C226.357 96.4524 230.243 88.4728 228.089 80.5091C225.934 72.5454 218.555 67.6133 218.555 67.6133C218.555 67.6133 214.669 75.5929 216.823 83.5566Z" fill="#3F3D56"/>
<path d="M219.989 81.8452C225.9 87.5998 226.622 96.446 226.622 96.446C226.622 96.446 217.76 95.9621 211.848 90.2075C205.937 84.4529 205.215 75.6067 205.215 75.6067C205.215 75.6067 214.077 76.0906 219.989 81.8452Z" fill="#217FED"/>
<path d="M236.422 83.5566C234.267 91.5203 226.888 96.4524 226.888 96.4524C226.888 96.4524 223.002 88.4728 225.156 80.5091C227.311 72.5454 234.69 67.6133 234.69 67.6133C234.69 67.6133 238.576 75.5929 236.422 83.5566Z" fill="#3F3D56"/>
<path d="M233.256 81.8452C227.345 87.5998 226.623 96.446 226.623 96.446C226.623 96.446 235.485 95.9621 241.397 90.2075C247.308 84.4529 248.03 75.6067 248.03 75.6067C248.03 75.6067 239.168 76.0906 233.256 81.8452Z" fill="#217FED"/>
<path d="M315 205.205H0V206H315V205.205Z" fill="#3F3D56"/>
</svg>
