<svg width="1164" height="619" viewBox="0 0 1164 619" fill="none" xmlns="http://www.w3.org/2000/svg">
<g clip-path="url(#clip0)">
<path opacity="0.1" d="M1074.75 489.473C1073.46 492.265 1072.16 495.02 1070.87 497.738C1068.86 501.961 1066.88 506.101 1064.92 510.159C1064.04 511.958 1063.17 513.722 1062.32 515.487C1052.71 535.113 1043.73 552.471 1036.11 566.746C1029.19 579.68 1018.92 590.518 1006.37 598.123C993.824 605.728 979.459 609.821 964.783 609.973L795.267 611.816H793.479L778.947 611.973L766.517 612.107L728.4 612.52H726.857L707.452 612.732H706.859L587.253 614.028L480.491 615.145L468.072 615.279L390.943 616.117H390.854L340.832 616.653H340.295L182.125 618.362L134.808 618.876C124.71 618.99 114.655 617.55 104.996 614.609C88.1862 609.535 73.0793 599.977 61.3005 586.963C40.9787 564.59 26.1677 538.486 16.2191 510.159C14.7809 506.071 13.4395 501.931 12.195 497.738C-22.2448 381.404 19.7403 231.315 95.3044 130.876C98.4715 126.676 101.691 122.58 104.962 118.589L105.04 118.499C128.28 89.9939 154.336 66.1798 182.091 49.2463C231.275 19.1882 285.768 10.7214 339.367 35.9541C384.717 57.3109 427.06 67.3526 468.106 70.078C472.253 70.3461 476.4 70.5472 480.525 70.67C574.678 73.6301 662.918 39.7295 766.539 17.8478C770.664 16.9765 774.8 16.1165 778.969 15.3011C852.89 0.601531 934.893 -7.15035 1032.41 9.14648C1042.54 10.8004 1052.54 13.1896 1062.32 16.2952C1066.62 17.6802 1070.77 19.1696 1074.75 20.7631C1121.3 39.6849 1146.68 74.6465 1157.47 118.455C1158.49 122.521 1159.38 126.657 1160.12 130.864C1179.25 236.241 1123.23 385.716 1074.75 489.473Z" fill="#217FED"/>
<g opacity="0.1">
<path opacity="0.1" d="M182.091 49.2478V618.486L134.774 619C124.676 619.114 114.621 617.675 104.962 614.733V118.501H105.04C128.279 89.9619 154.336 66.1478 182.091 49.2478Z" fill="#217FED"/>
<path opacity="0.1" d="M1160.18 130.877H95.3047C98.4718 126.677 101.691 122.582 104.963 118.59V118.501H1157.53C1158.55 122.544 1159.43 126.67 1160.18 130.877Z" fill="#217FED"/>
<path opacity="0.1" d="M1074.75 20.7758V497.729H1070.87C1068.86 501.951 1066.88 506.091 1064.92 510.15C1064.04 511.948 1063.17 513.713 1062.32 515.478V16.2632C1066.62 17.6482 1070.77 19.1524 1074.75 20.7758Z" fill="#217FED"/>
<path opacity="0.1" d="M778.97 15.269V612.019L766.54 612.153V17.8158C770.665 16.9445 774.801 16.0844 778.97 15.269Z" fill="#217FED"/>
<path opacity="0.1" d="M480.525 70.6379V615.258L468.106 615.392V70.0459C472.254 70.314 476.401 70.4704 480.525 70.6379Z" fill="#217FED"/>
<path opacity="0.1" d="M1070.87 497.74C1068.86 501.962 1066.88 506.103 1064.92 510.161H16.2194C14.7812 506.073 13.4398 501.933 12.1953 497.74H1070.87Z" fill="#217FED"/>
</g>
<path d="M257.767 296.928H236.528V361.334H257.767V296.928Z" fill="#3F3D56"/>
<path d="M829.338 293.577H808.1V361.713H829.338V293.577Z" fill="#3F3D56"/>
<path d="M964.783 596.079V610.6L794.965 612.164L793.155 612.197L728.612 612.789L727.07 612.812L707.452 612.979H706.871L587.287 614.085L390.988 615.906H390.82L340.91 616.375L340.374 616.386L118.6 618.419V601.664L170.746 570.389L275.373 569.517L277.608 569.506L278.346 569.495L280.582 569.461L330.816 569.048L333.063 569.037L333.778 569.026L336.014 569.015L352.122 568.881L352.547 568.869L392.285 568.534H392.609L702.69 565.921L710.28 565.865H711.04L716.83 565.809L758.916 565.463L761.152 565.429L763.22 565.407H764.293L777.382 565.306L779.976 565.273L783.452 565.25L794.351 565.15L811.643 565.005L813.879 564.982L817.769 564.96H818.495L902.007 564.245L964.783 596.079Z" fill="#65617D"/>
<path opacity="0.2" d="M964.783 596.079V610.6L794.965 612.164L793.155 612.197L728.612 612.789L727.07 612.812L707.452 612.979H706.871L587.287 614.085L390.988 615.906H390.82L340.91 616.375L340.374 616.386L118.6 618.419V601.664L170.746 570.389L275.373 569.517L277.608 569.506L278.346 569.495L280.582 569.461L330.816 569.048L333.063 569.037L333.778 569.026L336.014 569.015L352.122 568.881L352.547 568.869L392.285 568.534H392.609L702.69 565.921L710.28 565.865H711.04L716.83 565.809L758.916 565.463L761.152 565.429L763.22 565.407H764.293L777.382 565.306L779.976 565.273L783.452 565.25L794.351 565.15L811.643 565.005L813.879 564.982L817.769 564.96H818.495L902.007 564.245L964.783 596.079Z" fill="black"/>
<path d="M330.984 540.241V567.596C330.985 568.892 330.617 570.161 329.925 571.256C329.232 572.352 328.243 573.228 327.072 573.784C326.2 574.207 325.246 574.435 324.277 574.454L285.266 575.281C284.224 575.306 283.19 575.088 282.247 574.644C281.056 574.098 280.046 573.222 279.338 572.119C278.631 571.016 278.255 569.733 278.257 568.423V540.241H330.984Z" fill="#3F3D56"/>
<path opacity="0.1" d="M330.984 540.241V567.596C330.985 568.892 330.617 570.161 329.925 571.256C329.232 572.352 328.243 573.228 327.072 573.784C326.2 574.207 325.246 574.435 324.277 574.454L285.266 575.281C284.224 575.306 283.19 575.088 282.247 574.644C281.056 574.098 280.046 573.222 279.338 572.119C278.631 571.016 278.255 569.733 278.257 568.423V540.241H330.984Z" fill="black"/>
<path d="M333.219 540.241V567.596C333.22 568.892 332.853 570.161 332.16 571.256C331.468 572.352 330.478 573.228 329.307 573.784C328.435 574.207 327.482 574.435 326.513 574.454L287.501 575.281C286.459 575.306 285.426 575.088 284.483 574.644C283.291 574.098 282.281 573.222 281.574 572.119C280.866 571.016 280.491 569.733 280.492 568.423V540.241H333.219Z" fill="#3F3D56"/>
<path d="M813.878 540.241H761.151V575.426H813.878V540.241Z" fill="#3F3D56"/>
<path opacity="0.1" d="M813.878 540.241H761.151V575.426H813.878V540.241Z" fill="black"/>
<path d="M811.643 540.241H758.916V575.426H811.643V540.241Z" fill="#3F3D56"/>
<path opacity="0.1" d="M257.767 296.917V303.317L236.528 302.77V296.917H257.767Z" fill="black"/>
<path d="M397.561 116.613L372.042 299.799C371.88 300.969 371.292 302.039 370.391 302.803C369.49 303.568 368.338 303.973 367.157 303.943L162.821 298.649L158.942 298.548C158.266 298.532 157.602 298.374 156.992 298.084C156.382 297.794 155.84 297.379 155.401 296.866C154.962 296.353 154.637 295.753 154.445 295.105C154.254 294.458 154.202 293.777 154.292 293.108L182.941 101.344C183.126 100.156 183.75 99.0809 184.689 98.3302C185.629 97.5796 186.816 97.2082 188.016 97.2896L393.09 111.163C393.752 111.201 394.398 111.376 394.989 111.676C395.579 111.977 396.101 112.396 396.521 112.909C396.941 113.421 397.251 114.015 397.43 114.652C397.609 115.29 397.653 115.958 397.561 116.613V116.613Z" fill="#65617D"/>
<path d="M196.656 110.76L175.049 279.794L362.841 285.747L385.935 122.667L196.656 110.76Z" fill="#217FED"/>
<path d="M652.735 108.146H435.868C432.578 108.146 429.91 110.812 429.91 114.1V295.8C429.91 299.088 432.578 301.754 435.868 301.754H652.735C656.025 301.754 658.693 299.088 658.693 295.8V114.1C658.693 110.812 656.025 108.146 652.735 108.146Z" fill="#65617D"/>
<path d="M648.622 121.182H440.709V282.396H648.622V121.182Z" fill="#217FED"/>
<path opacity="0.1" d="M829.338 293.566V297.8L808.1 298.235V293.566H829.338Z" fill="black"/>
<path d="M925.169 289.992C925.199 290.455 925.135 290.919 924.981 291.356C924.828 291.794 924.587 292.196 924.274 292.538C923.96 292.88 923.581 293.156 923.159 293.348C922.736 293.54 922.279 293.644 921.815 293.655L712.561 297.978C711.691 297.996 710.848 297.685 710.199 297.107C709.55 296.529 709.143 295.727 709.062 294.862L691.076 108.012C691.032 107.549 691.082 107.081 691.224 106.638C691.366 106.194 691.596 105.784 691.901 105.432C692.207 105.08 692.58 104.793 692.999 104.59C693.419 104.387 693.875 104.27 694.34 104.248L902.008 93.9272L904.243 93.8155C905.132 93.7688 906.004 94.0688 906.675 94.6523C907.347 95.2358 907.765 96.0572 907.842 96.9431L925.169 289.992Z" fill="#65617D"/>
<path d="M703.025 115.228L892.685 105.913L908.703 275.694L720.541 280.162L703.025 115.228Z" fill="#217FED"/>
<path opacity="0.1" d="M925.169 289.992C925.199 290.455 925.135 290.919 924.982 291.356C924.828 291.794 924.587 292.196 924.274 292.538C923.961 292.88 923.581 293.156 923.159 293.348C922.736 293.54 922.279 293.644 921.815 293.655L902.008 93.9272L904.243 93.8155C905.132 93.7688 906.004 94.0688 906.676 94.6523C907.347 95.2358 907.766 96.0572 907.843 96.9431L925.169 289.992Z" fill="black"/>
<path opacity="0.1" d="M188.05 97.2781L162.821 298.648L158.942 298.548C158.266 298.532 157.602 298.374 156.992 298.084C156.382 297.794 155.84 297.379 155.401 296.866C154.962 296.352 154.637 295.753 154.445 295.105C154.254 294.458 154.202 293.777 154.292 293.108L182.941 101.344C183.124 100.148 183.751 99.0648 184.698 98.311C185.645 97.5572 186.842 97.1884 188.05 97.2781Z" fill="black"/>
<path opacity="0.1" d="M257.767 342.256H236.528V361.334H257.767V342.256Z" fill="black"/>
<path opacity="0.1" d="M333.219 540.23V545.781L280.492 547.189V540.23H333.219Z" fill="black"/>
<path d="M426.277 348.902V536.779C426.263 537.926 425.809 539.023 425.008 539.845C424.207 540.666 423.12 541.148 421.973 541.191L207.745 546.888H207.689C206.522 546.873 205.408 546.404 204.583 545.579C203.758 544.755 203.288 543.641 203.273 542.475V348.902C203.288 347.736 203.758 346.622 204.583 345.798C205.408 344.974 206.522 344.504 207.689 344.49H421.862C423.028 344.504 424.143 344.974 424.968 345.798C425.793 346.622 426.262 347.736 426.277 348.902V348.902Z" fill="#65617D"/>
<path opacity="0.1" d="M207.745 344.49V546.888H207.689C206.522 546.873 205.408 546.404 204.583 545.579C203.758 544.755 203.288 543.641 203.273 542.475V348.902C203.288 347.736 203.758 346.622 204.583 345.798C205.408 344.974 206.522 344.504 207.689 344.49H207.745Z" fill="black"/>
<path d="M217.526 356.486H415.938V522.079L217.526 526.547V356.486Z" fill="#D4DFEC"/>
<path opacity="0.1" d="M829.338 342.256H808.1V361.714H829.338V342.256Z" fill="black"/>
<path opacity="0.1" d="M811.643 540.23V547.39L758.916 545.982V540.23H811.643Z" fill="black"/>
<path d="M881.227 348.902V542.475C881.212 543.651 880.735 544.773 879.898 545.599C879.061 546.425 877.932 546.888 876.756 546.888V546.888L662.482 541.191C661.335 541.148 660.249 540.666 659.448 539.845C658.647 539.023 658.192 537.926 658.179 536.779V348.902C658.193 347.736 658.663 346.622 659.488 345.798C660.313 344.974 661.427 344.504 662.594 344.49H876.767C877.941 344.493 879.067 344.957 879.902 345.782C880.736 346.608 881.212 347.728 881.227 348.902V348.902Z" fill="#65617D"/>
<path opacity="0.1" d="M881.227 348.902V542.475C881.212 543.651 880.735 544.773 879.898 545.599C879.061 546.425 877.932 546.888 876.756 546.888V546.888V344.49C877.932 344.49 879.061 344.953 879.898 345.779C880.735 346.604 881.212 347.727 881.227 348.902Z" fill="black"/>
<path d="M866.975 356.486H668.563V522.079L866.975 526.547V356.486Z" fill="#D4DFEC"/>
<path d="M652.634 348.902V536.779C652.621 537.926 652.166 539.023 651.365 539.845C650.564 540.666 649.478 541.148 648.331 541.191L434.102 546.888C432.926 546.888 431.797 546.425 430.96 545.599C430.123 544.773 429.646 543.651 429.631 542.475V348.902C429.645 347.736 430.115 346.622 430.94 345.798C431.765 344.974 432.88 344.504 434.046 344.49H648.219C649.386 344.504 650.5 344.974 651.325 345.798C652.15 346.622 652.62 347.736 652.634 348.902V348.902Z" fill="#65617D"/>
<path d="M443.883 356.486H642.294V522.079L443.883 526.547V356.486Z" fill="#D4DFEC"/>
<path opacity="0.1" d="M964.783 596.08V610.6L794.965 612.164L793.155 612.198L728.612 612.79L727.07 612.812L707.452 612.98H706.871L587.287 614.085L390.988 615.906H390.82L340.91 616.375L340.374 616.386L118.6 618.419V601.664L344.968 600.179H345.504L391.323 599.866H391.536L707.966 597.777H708.29L708.48 597.766H709.006L714.36 597.733H715.992L799.258 597.174L804.176 597.152L805.272 597.141L964.783 596.08Z" fill="black"/>
<path d="M544.664 361.334C576.353 361.334 602.042 335.664 602.042 303.999C602.042 272.334 576.353 246.664 544.664 246.664C512.976 246.664 487.287 272.334 487.287 303.999C487.287 335.664 512.976 361.334 544.664 361.334Z" fill="#FBBEBE"/>
<path d="M602.054 421.282C602.054 421.282 490.832 434.686 501.451 421.282C505.296 416.435 506.358 402.07 506.146 385.706C506.079 380.736 505.9 375.586 505.643 370.459C504.413 345.886 501.451 321.87 501.451 321.87C501.451 321.87 598.701 276.074 587.523 312.376C583.051 327.042 584.516 347.639 587.914 366.974C588.909 372.615 590.06 378.144 591.267 383.394C594.213 396.199 597.814 408.845 602.054 421.282V421.282Z" fill="#FBBEBE"/>
<path opacity="0.1" d="M602.054 421.282C602.054 421.282 490.832 434.686 501.451 421.282C505.296 416.435 506.358 402.07 506.146 385.706C523.103 378.468 544.677 383.863 544.677 383.863C567.391 379.34 581.956 380.222 591.267 383.394C594.213 396.199 597.814 408.845 602.054 421.282V421.282Z" fill="black"/>
<path d="M390.944 617.169V616.23L587.254 614.097L706.86 612.98H707.195L707.072 614.633L707.24 612.98H707.452V612.79L708.984 597.766L709.565 592.081L709.744 590.305L709.9 588.819L716.808 565.798L723.717 542.811L729.529 523.453L738.405 493.876C738.405 493.876 733.374 482.147 730.58 478.796C727.785 475.445 724.991 452.547 724.991 452.547C724.991 452.547 701.137 429.839 690.708 427.225C686.337 426.108 677.707 424.622 668.541 422.757C665.11 422.065 661.589 421.327 658.202 420.523C656.29 420.088 654.412 419.63 652.613 419.172C649.11 418.297 645.658 417.231 642.273 415.977C640.498 415.333 638.809 414.474 637.243 413.419C629.027 407.399 608.437 406.717 607.643 406.717C607.641 406.691 607.641 406.665 607.643 406.639V406.538C607.672 406.07 607.672 405.6 607.643 405.131C607.643 404.684 607.643 404.159 607.542 403.567C607.542 403.389 607.542 403.199 607.464 403.009C607.408 402.607 607.341 402.182 607.241 401.735C607.207 401.536 607.162 401.338 607.106 401.143C606.783 399.797 606.314 398.49 605.709 397.245C605.631 397.066 605.53 396.877 605.441 396.698C604.893 395.666 604.257 394.683 603.541 393.76C603.395 393.57 603.239 393.369 603.071 393.179C602.155 392.1 601.137 391.113 600.031 390.23C599.729 389.996 599.416 389.75 599.092 389.527C598.911 389.38 598.72 389.246 598.522 389.125L597.527 388.477L596.599 387.941C595.783 387.494 594.922 387.058 593.983 386.645C593.693 386.511 593.38 386.388 593.067 386.265C592.754 386.142 592.262 385.952 591.848 385.796H591.781L590.943 385.461C590.306 385.249 589.657 385.059 588.976 384.869L587.936 384.601L586.818 384.344L585.7 384.109C584.583 383.886 583.386 383.685 582.135 383.529L580.86 383.372L579.552 383.238L578.2 383.126L576.277 383.015L574.042 382.937C564.182 382.936 554.35 383.98 544.71 386.053C538.014 384.564 531.155 383.933 524.299 384.176H523.327L522.209 384.243H521.493L520.051 384.377C519.571 384.377 519.079 384.478 518.598 384.545C518.118 384.612 517.614 384.668 517.134 384.746L516.396 384.869C515.669 384.992 514.932 385.126 514.16 385.282C513.915 385.327 513.669 385.383 513.423 385.45C512.45 385.662 511.478 385.919 510.516 386.209C510.036 386.343 509.555 386.5 509.074 386.667C508.828 386.734 508.594 386.824 508.359 386.913L507.644 387.17L506.939 387.449L506.101 387.784C505.676 387.963 505.263 388.153 504.849 388.354C504.614 388.454 504.38 388.566 504.156 388.689C503.932 388.812 503.698 388.912 503.485 389.035C500.958 390.34 498.622 391.987 496.544 393.928L495.974 394.475L495.415 395.045C495.225 395.235 495.046 395.436 494.867 395.637C494.139 396.432 493.459 397.272 492.833 398.15C492.654 398.384 492.486 398.619 492.318 398.865C491.609 399.91 490.967 401 490.396 402.126C490.25 402.394 490.116 402.674 489.982 402.942C489.07 404.829 488.322 406.791 487.747 408.806C487.538 409.551 487.348 410.295 487.176 411.04C487.176 411.04 463.512 421.473 443.884 429.023C438.663 431.034 433.745 432.855 429.632 434.229C428.435 434.631 427.318 434.999 426.278 435.345C424.022 436.16 421.677 436.7 419.292 436.954C418.168 436.972 417.047 437.077 415.938 437.267C406.918 438.73 391.458 445.086 389.77 451.464C389.633 451.973 389.595 452.504 389.659 453.027C389.659 453.027 389.659 453.106 389.659 453.15C390.776 460.969 382.952 459.852 382.952 459.852C382.952 459.852 380.157 480.516 376.245 486.101C373.417 490.122 371.483 499.092 371.237 505.861C371.097 507.97 371.262 510.088 371.729 512.149C371.729 512.205 371.729 512.261 371.729 512.306C372.176 513.803 371.103 517.891 369.281 523.129C367.302 528.882 364.418 536.031 361.646 542.777C357.466 552.964 353.531 562.213 353.285 564.246C353.184 565.15 352.894 566.77 352.491 568.859C350.859 577.37 347.238 593.578 345.449 600.134C344.119 605.027 342.185 611.729 340.855 616.331C340.855 616.465 340.777 616.599 340.743 616.722L390.855 616.23V617.169H391.011H390.944Z" fill="#217FED"/>
<path opacity="0.1" d="M409.23 485.509C409.23 485.509 472.946 518.46 495.861 514.55L409.23 485.509Z" fill="black"/>
<path opacity="0.1" d="M538.897 472.105C538.897 472.105 600.936 492.211 621.616 495.004C642.295 497.796 538.897 472.105 538.897 472.105Z" fill="black"/>
<path opacity="0.1" d="M607.71 407.41C575.294 413.374 514.261 412.09 487.881 411.185C497.55 376.559 544.699 388.331 544.699 388.331C603.06 376.693 607.531 400.842 607.71 407.41Z" fill="black"/>
<path d="M607.71 405.175C575.294 411.14 514.261 409.855 487.881 408.951C497.55 374.324 544.699 386.097 544.699 386.097C603.06 374.458 607.531 398.607 607.71 405.175Z" fill="#217FED"/>
<path d="M779.785 557.834C779.785 557.834 817.97 551.97 818.719 568.725C819.467 585.48 799.246 597.185 799.246 597.185L779.785 557.834Z" fill="#FBBEBE"/>
<path opacity="0.1" d="M587.914 366.974C586.271 367.708 584.592 368.357 582.883 368.918C570.833 373.073 558.683 377.262 545.996 378.781C533.308 380.3 519.995 378.96 508.929 372.638C507.767 371.982 506.647 371.254 505.576 370.459C504.346 345.886 501.384 321.87 501.384 321.87C501.384 321.87 598.633 276.074 587.455 312.376C583.006 327.042 584.515 347.639 587.914 366.974Z" fill="black"/>
<path d="M528.926 214.383C527.331 214.804 525.659 214.847 524.044 214.508C522.43 214.168 520.917 213.456 519.626 212.429L521.951 215.657C520.581 215.815 519.193 215.672 517.884 215.238C516.574 214.803 515.376 214.089 514.372 213.144C514.161 216.033 514.281 218.938 514.73 221.8C510.883 221.986 507.095 220.798 504.044 218.449C503.984 219.457 504.235 220.459 504.763 221.319C505.29 222.18 506.069 222.859 506.995 223.263C503.13 222.802 499.23 223.762 496.021 225.963C492.812 228.164 490.515 231.457 489.557 235.226L495.392 235.762C490.806 236.741 486.69 239.25 483.722 242.878C481.933 245.112 480.57 247.971 481.352 250.697C482.135 253.422 485.913 255.164 487.97 253.221C485.044 256.71 482.917 260.797 481.74 265.195C480.562 269.592 480.361 274.194 481.151 278.677C481.681 280.587 481.856 282.579 481.665 284.552C481.296 286.395 480.134 287.993 479.552 289.791C478.435 293.053 479.497 296.594 480.491 299.844L485.734 317.068C487.634 323.289 489.523 329.522 492.005 335.543C493.762 339.349 495.256 343.272 496.476 347.282C497.885 352.689 497.94 358.609 500.947 363.333C503.008 366.307 505.763 368.734 508.973 370.404C520.028 376.726 533.386 378.066 546.04 376.547C558.694 375.028 570.833 370.84 582.872 366.684C585.546 365.879 588.114 364.754 590.518 363.333C598.845 357.883 600.701 346.735 602.255 336.917C603.987 325.97 606.301 315.046 610.404 304.747C612.84 298.615 615.993 292.394 615.456 285.826C614.774 277.102 607.866 270.032 606.156 261.453C605.583 258.586 605.61 255.631 606.234 252.774C606.765 251.072 607.062 249.306 607.117 247.524C606.927 243.928 603.976 241.157 601.204 238.845C595.19 233.826 588.983 229.083 582.581 224.615C582.257 222.381 585.297 221.42 586.672 219.656C588.617 217.165 586.605 213.211 583.654 212.049C580.703 210.887 577.395 211.647 574.321 212.417C574.521 210.845 574.208 209.25 573.428 207.87C572.649 206.49 571.444 205.398 569.994 204.756C568.543 204.115 566.924 203.959 565.378 204.311C563.831 204.663 562.44 205.504 561.41 206.71C560.593 204.839 559.289 203.222 557.634 202.027C555.978 200.833 554.032 200.104 551.998 199.918C544.587 199.338 544.441 205.001 539.702 208.117C534.962 211.233 531.05 207.123 527.406 204.129C526.736 205.822 526.524 207.66 526.791 209.46C527.058 211.26 527.794 212.958 528.926 214.383V214.383Z" fill="#3F3D56"/>
<path d="M808.099 591.344C808.099 591.344 807.105 593.712 805.271 597.141C802.498 602.416 799.122 607.353 795.211 611.851L794.909 612.175H793.098L728.556 612.767H727.013L726.823 612.544L714.304 597.699L709.587 592.103L709.397 591.869L708.994 591.399L708.771 591.131L708.48 590.785L699.303 579.906L702.656 565.943L708.368 542.42L708.513 541.85L709.631 537.382L710.425 534.031L713.085 523.107L722.207 485.521L738.415 493.898L755.506 524.056L764.684 540.253H769.714C770.664 540.253 772.844 542.085 775.035 544.196C775.817 544.944 776.599 545.737 777.27 546.43C779.26 548.485 780.836 550.25 780.836 550.25C780.836 550.25 788.985 550.428 791.176 556.84C791.289 557.15 791.382 557.467 791.455 557.789C792.182 560.31 793.129 562.761 794.283 565.117C795.725 568.256 797.536 571.819 799.369 575.382C802.779 581.916 806.244 588.138 807.518 590.394L807.675 590.673L808.099 591.344Z" fill="#217FED"/>
<path opacity="0.1" d="M712.081 540.912L711.969 542.509V542.621L711.779 545.19L710.292 565.865L708.492 590.774L707.978 597.789L706.86 612.801V612.991L587.254 614.108L390.978 616.23V617.168H390.821V616.23V615.917L391.324 599.877L392.286 568.535L393.113 541.962L393.191 539.314C393.24 537.717 393.614 536.145 394.291 534.697C394.968 533.249 395.933 531.953 397.128 530.89C398.323 529.827 399.722 529.019 401.24 528.514C402.758 528.009 404.363 527.819 405.956 527.955C411.233 528.401 418.085 528.949 426.278 529.53L429.632 529.775C476.949 533.059 564.395 537.304 652.635 532.009C654.491 531.909 656.358 531.797 658.224 531.663C671.906 530.803 685.577 529.697 699.114 528.312C700.825 528.133 702.555 528.331 704.181 528.892C705.808 529.453 707.291 530.363 708.528 531.559C709.764 532.755 710.723 534.207 711.336 535.814C711.95 537.42 712.204 539.141 712.081 540.856V540.912Z" fill="black"/>
<path d="M390.943 617.168V616.23L587.254 614.096L706.859 612.979H707.195V612.789L708.313 597.777L708.793 591.075L710.626 565.82L712.068 545.826V545.335C712.135 544.413 712.094 543.487 711.945 542.576C711.952 542.539 711.952 542.501 711.945 542.464C711.638 540.579 710.87 538.799 709.71 537.281C708.479 535.704 706.866 534.466 705.024 533.684C703.182 532.903 701.17 532.603 699.18 532.813C685.643 534.198 671.972 535.304 658.29 536.164C656.424 536.298 654.557 536.41 652.701 536.51C564.461 541.749 477.015 537.505 429.698 534.276L426.344 534.031C418.151 533.45 411.299 532.914 406.023 532.456C403.12 532.211 400.23 533.049 397.91 534.809C395.589 536.568 394.004 539.125 393.458 541.984C393.346 542.588 393.278 543.201 393.257 543.816L392.497 568.568L391.458 599.922L390.966 615.962V616.274V617.213L390.943 617.168Z" fill="#3F3D56"/>
<path opacity="0.1" d="M712.416 548.741L711.041 565.865L708.995 591.388L708.481 597.777L707.363 612.086L707.296 612.801V612.99L707.128 614.644L707.251 612.99H706.927L587.321 614.107L390.978 616.23V615.917L391.525 599.877L392.643 568.534L393.358 547.703C393.394 546.518 393.725 545.36 394.323 544.336C394.92 543.312 395.764 542.453 396.779 541.839C398.045 541.063 399.525 540.711 401.004 540.833C403.352 541.023 406.236 541.247 409.6 541.492C415.066 541.894 421.807 542.363 429.654 542.855C444.185 543.771 462.417 544.754 483.309 545.558C541.435 547.792 619.905 548.54 694.441 542.017C697.795 541.727 701.26 541.403 704.647 541.079C705.987 540.945 707.338 541.201 708.537 541.816C708.876 541.985 709.198 542.187 709.498 542.419C710.471 543.124 711.242 544.071 711.734 545.167C711.848 545.385 711.941 545.613 712.013 545.849C712.349 546.774 712.486 547.76 712.416 548.741V548.741Z" fill="black"/>
<path opacity="0.1" d="M333.219 564.033V567.596C333.22 568.892 332.853 570.161 332.16 571.257C331.468 572.352 330.478 573.229 329.307 573.784L284.483 574.645C283.291 574.099 282.281 573.222 281.574 572.119C280.866 571.016 280.491 569.733 280.492 568.423V565.072L333.219 564.033Z" fill="black"/>
<path d="M333.779 575.884L275.373 577.001V567.317L333.779 566.2V575.884Z" fill="#3F3D56"/>
<path opacity="0.1" d="M333.779 575.884L275.373 577.001V567.317L333.779 566.2V575.884Z" fill="black"/>
<path d="M336.014 575.884L277.608 577.001V567.317L336.014 566.2V575.884Z" fill="#3F3D56"/>
<g opacity="0.1">
<path opacity="0.1" d="M529.385 210.719C528.293 209.301 527.567 207.636 527.272 205.872C527.003 207.597 527.164 209.362 527.742 211.01C528.297 210.959 528.846 210.861 529.385 210.719Z" fill="black"/>
<path opacity="0.1" d="M515.189 218.136C514.978 216.766 514.84 215.387 514.775 214.003C514.775 215.377 514.775 216.762 514.775 218.147L515.189 218.136Z" fill="black"/>
<path opacity="0.1" d="M606.29 255.41C606.352 254.415 606.486 253.426 606.692 252.45C607.221 250.751 607.522 248.989 607.586 247.211C607.561 246.812 607.502 246.416 607.408 246.027C607.218 247.055 606.916 248.083 606.692 249.099C606.246 251.171 606.11 253.298 606.29 255.41Z" fill="black"/>
<path opacity="0.1" d="M583.04 220.895L584.258 221.777C585.285 221.035 586.246 220.205 587.131 219.298C587.551 218.716 587.812 218.035 587.887 217.322C587.961 216.608 587.847 215.888 587.555 215.232C587.444 215.487 587.302 215.727 587.131 215.947C585.756 217.712 582.715 218.683 583.04 220.895Z" fill="black"/>
<path opacity="0.1" d="M491.189 231.641C490.782 232.455 490.456 233.308 490.217 234.187C491.965 233.212 493.849 232.501 495.806 232.076L491.189 231.641Z" fill="black"/>
<path opacity="0.1" d="M506.604 219.488C505.87 219.083 505.167 218.624 504.503 218.114C504.475 218.556 504.509 218.999 504.603 219.432C505.271 219.4 505.94 219.419 506.604 219.488V219.488Z" fill="black"/>
<path opacity="0.1" d="M615.892 285.3C615.434 290.718 612.908 295.934 610.862 301.072C606.76 311.371 604.446 322.295 602.713 333.253C601.16 343.071 599.36 354.218 590.976 359.658C588.581 361.088 586.016 362.214 583.342 363.009C571.292 367.175 559.141 371.353 546.454 372.872C533.767 374.391 520.454 373.062 509.387 366.74C506.179 365.067 503.425 362.64 501.362 359.669C498.377 354.944 498.321 349.024 496.89 343.618C495.67 339.604 494.176 335.678 492.419 331.867C489.949 325.858 488.048 319.581 486.159 313.404C484.408 307.662 482.661 301.917 480.917 296.169C480.342 294.439 479.916 292.664 479.642 290.863C479.207 293.722 480.056 296.716 480.917 299.52C482.661 305.276 484.408 311.021 486.159 316.755C488.048 322.976 489.949 329.209 492.419 335.218C494.176 339.029 495.67 342.955 496.89 346.969C498.299 352.375 498.355 358.295 501.362 363.02C503.425 365.991 506.179 368.418 509.387 370.091C520.454 376.413 533.8 377.742 546.454 376.223C559.108 374.704 571.247 370.526 583.342 366.36C586.016 365.565 588.581 364.439 590.976 363.009C599.304 357.569 601.16 346.422 602.713 336.603C604.446 325.646 606.76 314.722 610.862 304.423C613.299 298.302 616.451 292.08 615.915 285.501C615.915 285.434 615.892 285.367 615.892 285.3Z" fill="black"/>
<path opacity="0.1" d="M482.102 280.978C482.102 280.978 482.102 280.899 482.102 280.855C482.304 278.885 482.129 276.895 481.588 274.991C481.365 273.765 481.219 272.526 481.152 271.282C481.023 273.644 481.169 276.013 481.588 278.342C481.767 279.213 481.968 280.095 482.102 280.978Z" fill="black"/>
<path opacity="0.1" d="M485.511 253.656C486.371 252.213 487.347 250.842 488.429 249.557C486.383 251.511 482.605 249.769 481.811 247.055C481.519 248.153 481.519 249.308 481.811 250.406C482.086 251.225 482.574 251.958 483.223 252.528C483.873 253.099 484.662 253.488 485.511 253.656V253.656Z" fill="black"/>
</g>
<path opacity="0.1" d="M764.696 540.241C764.696 540.241 768.239 553.087 764.696 564.256C761.153 575.426 764.696 540.241 764.696 540.241Z" fill="black"/>
<path opacity="0.1" d="M779.785 553.344C779.785 553.344 781.272 569.652 777.919 572.545C774.565 575.438 779.785 553.344 779.785 553.344Z" fill="black"/>
<path d="M222.434 382.97L336.015 381.853" stroke="#217FED" stroke-width="2" stroke-miterlimit="10"/>
<path d="M222.434 396.899L336.015 395.793" stroke="#217FED" stroke-width="2" stroke-miterlimit="10"/>
<path d="M222.434 410.839L336.015 409.722" stroke="#217FED" stroke-width="2" stroke-miterlimit="10"/>
</g>
<defs>
<clipPath id="clip0">
<rect width="1164" height="619" fill="white"/>
</clipPath>
</defs>
</svg>
