<svg width="1439" height="263" viewBox="0 0 1439 263" fill="none" xmlns="http://www.w3.org/2000/svg">
<path d="M1439 0L1391 32.8079C1343 65.6158 1247 131.232 1151 136.666C1055 142.509 959 87.146 863 92.9899C767 98.4238 671 164.04 575 153.069C479 142.509 383 54.3381 287 32.8079C191 11.2777 95 54.3381 47 76.586L-1 98.4238V262.463H47C95 262.463 191 262.463 287 262.463C383 262.463 479 262.463 575 262.463C671 262.463 767 262.463 863 262.463C959 262.463 1055 262.463 1151 262.463C1247 262.463 1343 262.463 1391 262.463H1439V0Z" fill="#217FED"/>
</svg>
